<?xml version="1.0" encoding="UTF-8" standalone="no"?>
<svg width="32px" height="32px" viewBox="0 0 32 32" version="1.1" xmlns="http://www.w3.org/2000/svg" xmlns:xlink="http://www.w3.org/1999/xlink" xmlns:sketch="http://www.bohemiancoding.com/sketch/ns">
    <!-- Generator: Sketch 3.3.3 (12081) - http://www.bohemiancoding.com/sketch -->
    <title>Facebook</title>
    <desc>Created with Sketch.</desc>
    <defs></defs>
    <g id="Page-1" stroke="none" stroke-width="1" fill="none" fill-rule="evenodd" sketch:type="MSPage">
        <g id="Social-Media" sketch:type="MSLayerGroup">
            <g id="Facebook" sketch:type="MSShapeGroup">
                <rect id="Rectangle-38" fill="#3A5998" x="0" y="0" width="32" height="32" rx="2"></rect>
                <path d="M14,14.7515556 L16.7346667,14.7515556 L16.7346667,12.0931111 C16.7346667,10.9202222 16.7642222,9.11266667 17.6166667,7.99266667 C18.5126667,6.80577778 19.7446667,6 21.8617778,6 C25.312,6 26.7648889,6.49155556 26.7648889,6.49155556 L26.082,10.5453333 C26.082,10.5453333 24.9417778,10.214 23.8777778,10.214 C22.8153333,10.214 21.8617778,10.5966667 21.8617778,11.6591111 L21.8617778,14.7515556 L26.2235556,14.7515556 L25.9202222,18.7104444 L21.8617778,18.7104444 L21.8617778,32.4615556 L16.7346667,32.4615556 L16.7346667,18.7104444 L14,18.7104444 L14,14.7515556" id="Imported-Layers" fill="#FFFFFF"></path>
            </g>
        </g>
    </g>
</svg>