<?xml version="1.0" encoding="UTF-8" standalone="no"?>
<svg width="32px" height="32px" viewBox="0 0 32 32" version="1.1" xmlns="http://www.w3.org/2000/svg" xmlns:xlink="http://www.w3.org/1999/xlink" xmlns:sketch="http://www.bohemiancoding.com/sketch/ns">
    <!-- Generator: Sketch 3.3.3 (12081) - http://www.bohemiancoding.com/sketch -->
    <title>Instagram</title>
    <desc>Created with Sketch.</desc>
    <defs></defs>
    <g id="Page-1" stroke="none" stroke-width="1" fill="none" fill-rule="evenodd" sketch:type="MSPage">
        <g id="Social-Media" sketch:type="MSLayerGroup" transform="translate(-148.000000, 0.000000)">
            <g id="Instagram" transform="translate(148.000000, 0.000000)" sketch:type="MSShapeGroup">
                <rect id="Rectangle-38-Copy-4" fill="#527FA5" x="0" y="0" width="32" height="32" rx="2"></rect>
                <path d="M23.2933333,5 L9.38266667,5 C6.96533333,5 5,6.96533333 5,9.38266667 L5,23.2973333 C5,25.7146667 6.96533333,27.6813333 9.38266667,27.6813333 L23.2933333,27.6813333 C25.7106667,27.6813333 27.676,25.7146667 27.676,23.2973333 L27.676,9.38266667 C27.676,6.96533333 25.7106667,5 23.2933333,5 L23.2933333,5 Z M24.552,7.61466667 L25.0533333,7.612 L25.0533333,11.4573333 L21.2213333,11.468 L21.208,7.624 L24.552,7.61466667 L24.552,7.61466667 Z M13.1026667,14.0133333 C13.828,13.0066667 15.0066667,12.3466667 16.3373333,12.3466667 C17.6706667,12.3466667 18.848,13.0066667 19.5733333,14.0133333 C20.048,14.6693333 20.3306667,15.4706667 20.3306667,16.34 C20.3306667,18.5413333 18.5386667,20.332 16.3373333,20.332 C14.1373333,20.332 12.3466667,18.5413333 12.3466667,16.34 C12.3466667,15.4706667 12.6293333,14.6693333 13.1026667,14.0133333 L13.1026667,14.0133333 Z M25.4666667,23.2973333 C25.4666667,24.496 24.4933333,25.4706667 23.2933333,25.4706667 L9.38266667,25.4706667 C8.18266667,25.4706667 7.20933333,24.496 7.20933333,23.2973333 L7.20933333,14.0133333 L10.5946667,14.0133333 C10.3013333,14.732 10.1373333,15.5173333 10.1373333,16.34 C10.1373333,19.7586667 12.9186667,22.5426667 16.3373333,22.5426667 C19.7573333,22.5426667 22.5386667,19.7586667 22.5386667,16.34 C22.5386667,15.5173333 22.3733333,14.732 22.0813333,14.0133333 L25.4666667,14.0133333 L25.4666667,23.2973333 L25.4666667,23.2973333 Z" id="Imported-Layers" fill="#FFFFFF"></path>
            </g>
        </g>
    </g>
</svg>