<?xml version="1.0" encoding="UTF-8" standalone="no"?>
<svg width="417px" height="76px" viewBox="0 0 417 76" version="1.1" xmlns="http://www.w3.org/2000/svg" xmlns:xlink="http://www.w3.org/1999/xlink" xmlns:sketch="http://www.bohemiancoding.com/sketch/ns">
    <!-- Generator: Sketch 3.3.3 (12081) - http://www.bohemiancoding.com/sketch -->
    <title>lockup</title>
    <desc>Created with Sketch.</desc>
    <defs></defs>
    <g id="Page-1" stroke="none" stroke-width="1" fill="none" fill-rule="evenodd" sketch:type="MSPage">
        <g id="lockup" sketch:type="MSLayerGroup">
            <g id="logotype" transform="translate(100.000000, 0.000000)" sketch:type="MSShapeGroup">
                <path d="M4.523,70.924 C4.893,72.188 5.852,72.652 7.121,72.652 C7.681,72.652 8.808,72.566 8.808,71.773 C8.808,70.906 7.705,70.736 7.058,70.615 C4.375,70.092 1.193,69.359 1.193,65.973 C1.193,64.576 1.882,63.211 3.023,62.398 C4.191,61.582 5.708,61.314 7.121,61.314 C9.596,61.314 11.985,62.34 12.859,64.814 L9.242,65.912 C8.828,64.85 8.033,64.478 6.933,64.478 C6.349,64.478 5.518,64.646 5.518,65.389 C5.518,66.141 6.559,66.287 7.103,66.408 C8.449,66.682 9.884,66.91 11.133,67.557 C12.526,68.305 13.254,69.633 13.254,71.193 C13.254,74.627 9.844,76 6.894,76 C3.897,76 1.235,74.75 0.465,71.646 L4.523,70.924" id="Fill-1" fill="#DB322A"></path>
                <path d="M25.376,67.557 C26.374,67.557 27.579,67.492 27.579,66.16 C27.579,64.892 26.496,64.787 25.498,64.787 L24.231,64.787 L24.231,67.557 L25.376,67.557 L25.376,67.557 Z M24.231,75.793 L19.803,75.793 L19.803,61.523 L25.624,61.523 C27.021,61.523 28.578,61.568 29.805,62.275 C31.133,63.064 31.923,64.478 31.923,66.016 C31.923,67.369 31.402,68.662 30.344,69.508 C29.241,70.402 27.826,70.615 26.459,70.615 L24.231,70.615 L24.231,75.793 L24.231,75.793 Z" id="Fill-2" fill="#DB322A"></path>
                <path d="M42.422,68.721 C42.422,70.092 42.568,72.73 44.566,72.73 C46.558,72.73 46.706,70.092 46.706,68.721 C46.706,67.328 46.499,64.543 44.566,64.543 C42.634,64.543 42.422,67.328 42.422,68.721 L42.422,68.721 Z M51.383,68.699 C51.383,72.748 48.89,76 44.566,76 C40.24,76 37.746,72.748 37.746,68.699 C37.746,64.441 40.218,61.314 44.566,61.314 C48.912,61.314 51.383,64.441 51.383,68.699 L51.383,68.699 Z" id="Fill-3" fill="#DB322A"></path>
                <path d="M63.653,67.283 C64.607,67.283 65.752,67.139 65.752,65.912 C65.752,65.432 65.501,64.975 65.065,64.748 C64.69,64.561 64.235,64.561 63.82,64.561 L62.05,64.561 L62.05,67.283 L63.653,67.283 L63.653,67.283 Z M65.501,75.793 L63.424,70.344 L62.05,70.344 L62.05,75.793 L57.622,75.793 L57.622,61.523 L64.88,61.523 C66.129,61.523 67.5,61.689 68.562,62.398 C69.742,63.148 70.308,64.414 70.308,65.808 C70.308,67.68 69.473,68.805 67.788,69.57 L70.369,75.793 L65.501,75.793 L65.501,75.793 Z" id="Fill-4" fill="#DB322A"></path>
                <path d="M82.761,75.793 L78.599,75.793 L78.599,64.955 L75.609,64.955 L75.609,61.523 L85.692,61.523 L85.692,64.955 L82.761,64.955 L82.761,75.793" id="Fill-5" fill="#DB322A"></path>
                <path d="M94.964,70.924 C95.341,72.188 96.294,72.652 97.565,72.652 C98.125,72.652 99.248,72.566 99.248,71.773 C99.248,70.906 98.144,70.736 97.502,70.615 C94.818,70.092 91.633,69.359 91.633,65.973 C91.633,64.576 92.321,63.211 93.466,62.398 C94.634,61.582 96.15,61.314 97.565,61.314 C100.039,61.314 102.428,62.34 103.301,64.814 L99.681,65.912 C99.267,64.85 98.479,64.478 97.375,64.478 C96.795,64.478 95.96,64.646 95.96,65.389 C95.96,66.141 97.002,66.287 97.541,66.408 C98.894,66.682 100.331,66.91 101.576,67.557 C102.973,68.305 103.697,69.633 103.697,71.193 C103.697,74.627 100.287,76 97.334,76 C94.34,76 91.682,74.75 90.907,71.646 L94.964,70.924" id="Fill-6" fill="#DB322A"></path>
                <path d="M114.16,62.346 L117.84,62.346 L117.84,66.789 L122.279,66.789 L122.279,70.465 L117.84,70.465 L117.84,74.898 L114.16,74.898 L114.16,70.465 L109.721,70.465 L109.721,66.789 L114.16,66.789 L114.16,62.346" id="Fill-7" fill="#0055AA"></path>
                <path d="M131.621,68.721 C131.621,70.092 131.767,72.73 133.761,72.73 C135.757,72.73 135.903,70.092 135.903,68.721 C135.903,67.328 135.694,64.543 133.761,64.543 C131.828,64.543 131.621,67.328 131.621,68.721 L131.621,68.721 Z M140.581,68.699 C140.581,72.748 138.085,76 133.761,76 C129.437,76 126.942,72.748 126.942,68.699 C126.942,64.441 129.413,61.314 133.761,61.314 C138.108,61.314 140.581,64.441 140.581,68.699 L140.581,68.699 Z" id="Fill-8" fill="#DB322A"></path>
                <path d="M158.378,70.693 C158.378,72.355 158.193,73.689 156.817,74.791 C155.593,75.744 154.097,76 152.598,76 C151.288,76 149.583,75.707 148.479,74.977 C146.964,73.975 146.671,72.631 146.671,70.924 L146.671,61.523 L151.126,61.523 L151.126,70.43 C151.126,70.906 151.102,71.543 151.394,71.982 C151.724,72.437 152.392,72.631 152.954,72.631 C153.45,72.631 154.075,72.48 154.447,72.146 C155.009,71.676 154.946,70.924 154.946,70.258 L154.946,61.523 L158.378,61.523 L158.378,70.693" id="Fill-9" fill="#DB322A"></path>
                <path d="M171.535,75.793 L167.379,75.793 L167.379,64.955 L164.386,64.955 L164.386,61.523 L174.473,61.523 L174.473,64.955 L171.535,64.955 L171.535,75.793" id="Fill-10" fill="#DB322A"></path>
                <path d="M185.555,72.498 C186.133,72.498 186.51,72.545 187.053,72.258 C187.444,72.023 187.757,71.711 187.987,71.314 C188.486,70.49 188.649,69.529 188.649,68.572 C188.649,67.617 188.379,66.371 187.778,65.58 C187.09,64.728 186.425,64.771 185.429,64.771 L184.931,64.771 L184.931,72.498 L185.555,72.498 L185.555,72.498 Z M180.541,61.523 L185.8,61.523 C187.862,61.523 189.504,61.793 191.043,63.269 C192.541,64.683 193.225,66.637 193.225,68.68 C193.225,70.553 192.56,72.498 191.252,73.854 C189.839,75.328 188.069,75.793 186.094,75.793 L180.541,75.793 L180.541,61.523 L180.541,61.523 Z" id="Fill-11" fill="#DB322A"></path>
                <path d="M203.556,68.721 C203.556,70.092 203.705,72.73 205.7,72.73 C207.697,72.73 207.841,70.092 207.841,68.721 C207.841,67.328 207.634,64.543 205.7,64.543 C203.768,64.543 203.556,67.328 203.556,68.721 L203.556,68.721 Z M212.519,68.699 C212.519,72.748 210.024,76 205.7,76 C201.375,76 198.876,72.748 198.876,68.699 C198.876,64.441 201.354,61.314 205.7,61.314 C210.043,61.314 212.519,64.441 212.519,68.699 L212.519,68.699 Z" id="Fill-12" fill="#DB322A"></path>
                <path d="M222.896,68.721 C222.896,70.092 223.041,72.73 225.034,72.73 C227.031,72.73 227.179,70.092 227.179,68.721 C227.179,67.328 226.971,64.543 225.034,64.543 C223.104,64.543 222.896,67.328 222.896,68.721 L222.896,68.721 Z M231.853,68.699 C231.853,72.748 229.359,76 225.034,76 C220.71,76 218.218,72.748 218.218,68.699 C218.218,64.441 220.689,61.314 225.034,61.314 C229.383,61.314 231.853,64.441 231.853,68.699 L231.853,68.699 Z" id="Fill-13" fill="#DB322A"></path>
                <path d="M244.121,67.283 C245.08,67.283 246.222,67.139 246.222,65.912 C246.222,65.432 245.973,64.975 245.534,64.748 C245.161,64.561 244.703,64.561 244.289,64.561 L242.521,64.561 L242.521,67.283 L244.121,67.283 L244.121,67.283 Z M245.973,75.793 L243.896,70.344 L242.521,70.344 L242.521,75.793 L238.093,75.793 L238.093,61.523 L245.352,61.523 C246.599,61.523 247.969,61.689 249.027,62.398 C250.218,63.148 250.775,64.414 250.775,65.808 C250.775,67.68 249.942,68.805 248.259,69.57 L250.842,75.793 L245.973,75.793 L245.973,75.793 Z" id="Fill-14" fill="#DB322A"></path>
                <path d="M260.256,70.924 C260.631,72.188 261.588,72.652 262.86,72.652 C263.419,72.652 264.542,72.566 264.542,71.773 C264.542,70.906 263.436,70.736 262.792,70.615 C260.117,70.092 256.931,69.359 256.931,65.973 C256.931,64.576 257.616,63.211 258.76,62.398 C259.925,61.582 261.443,61.314 262.86,61.314 C265.329,61.314 267.723,62.34 268.595,64.814 L264.978,65.912 C264.563,64.85 263.771,64.478 262.669,64.478 C262.089,64.478 261.257,64.646 261.257,65.389 C261.257,66.141 262.294,66.287 262.837,66.408 C264.188,66.682 265.619,66.91 266.869,67.557 C268.261,68.305 268.986,69.633 268.986,71.193 C268.986,74.627 265.58,76 262.628,76 C259.635,76 256.97,74.75 256.203,71.646 L260.256,70.924" id="Fill-15" fill="#DB322A"></path>
                <path d="M28.509,33.215 L23.006,15.058 L17.503,33.215 L28.509,33.215 L28.509,33.215 Z M46.613,53.342 L34.465,53.342 L31.296,42.715 L14.565,42.715 L11.325,53.342 L0.699,53.342 L15.626,5.413 L30.397,1.929 L46.613,53.342 L46.613,53.342 Z" id="Fill-16" fill="#0055AA"></path>
                <path d="M74.551,27.865 C74.551,25.545 73.041,23.031 69.044,23.031 C62.94,23.031 62.19,29.058 62.19,33.958 C62.19,38.627 62.262,45.267 68.593,45.267 C72.513,45.267 74.172,42.902 74.551,39.359 L85.4,39.236 C84.497,48.736 77.335,54.385 67.991,54.385 C56.382,54.385 49.525,46.172 49.525,34.868 C49.525,23.106 56.608,14.587 68.667,14.587 C77.564,14.587 84.453,20.413 85.186,27.865 L74.551,27.865" id="Fill-17" fill="#0055AA"></path>
                <path d="M114.118,35.317 C109.898,35.774 102.134,36.746 102.134,42.328 C102.134,45.344 103.944,47.379 107.033,47.379 C109.294,47.379 111.33,46.172 112.61,44.209 C114.193,41.795 114.118,39.537 114.118,36.829 L114.118,35.317 L114.118,35.317 Z M114.626,53.631 C114.573,51.814 114.57,49.641 114.647,47.68 C111.481,52.199 108.164,54.385 102.433,54.385 C95.651,54.385 90.377,50.766 90.377,43.533 C90.377,37.873 93.917,34.036 98.967,32.153 C103.338,30.5 109.446,30.193 114.118,29.739 L114.118,28.839 C114.118,27.178 114.267,25.216 113.139,23.785 C112.161,22.501 110.273,21.976 108.616,21.976 C105.073,21.976 101.931,24.1 101.931,27.865 L91.663,27.744 C92.764,17.476 101.681,14.587 109.745,14.587 C113.665,14.587 118.79,15.492 121.882,18.059 C125.802,21.223 125.425,25.443 125.425,30.041 L125.425,47.9 C125.425,49.859 125.48,51.814 125.454,53.631 L114.626,53.631 L114.626,53.631 Z" id="Fill-18" fill="#0055AA"></path>
                <path d="M155.22,32.38 C155.22,28.683 154.918,22.353 149.869,22.353 C143.54,22.353 143.313,30.644 143.313,35.244 C143.313,39.387 143.913,46.398 149.419,46.398 C151.448,46.398 153.339,45.041 154.238,43.301 C155.146,41.574 155.22,39.537 155.22,37.653 L155.22,32.38 L155.22,32.38 Z M155.747,53.631 L155.747,47.68 L155.597,47.68 C153.486,51.744 150.32,54.385 145.423,54.385 C134.646,54.385 131.625,43.838 131.625,34.943 C131.625,25.818 134.492,14.587 145.646,14.587 C149.946,14.587 152.807,15.869 155.22,19.412 L155.22,3.373 L166.3,0.875 L166.3,53.631 L155.747,53.631 L155.747,53.631 Z" id="Fill-19" fill="#0055AA"></path>
                <path d="M196.324,29.812 C196.102,25.671 194.743,21.825 189.92,21.825 C185.019,21.825 183.135,25.443 182.756,29.812 L196.324,29.812 L196.324,29.812 Z M182.833,36.375 L182.756,38.254 C182.756,42.781 185.323,46.469 190.146,46.469 C193.537,46.469 197.067,43.914 197.067,40.377 L207.461,40.377 C207.461,42.258 203.84,54.389 189.767,54.385 C178.313,54.385 170.85,46.398 170.85,35.014 C170.85,23.709 177.558,14.587 189.471,14.587 C194.821,14.587 200.322,17.001 203.487,21.374 C206.651,25.748 207.482,31.172 207.407,36.375 L182.833,36.375 L182.833,36.375 Z" id="Fill-20" fill="#0055AA"></path>
                <path d="M223.911,14.455 L223.911,21.223 L224.063,21.223 C226.022,16.696 229.714,14.587 234.69,14.587 C239.739,14.587 242.905,16.696 245.167,21.223 C247.125,16.696 251.573,14.587 256.325,14.587 C259.715,14.587 263.409,15.797 265.665,18.507 C268.229,21.521 267.702,25.892 267.702,29.739 L267.702,53.631 L256.624,53.631 L256.624,33.359 C256.624,31.848 256.773,28.083 256.396,26.646 C255.795,24.241 253.982,23.561 251.649,23.561 C249.692,23.561 247.655,24.692 246.827,26.502 C245.998,28.307 246.072,31.32 246.072,33.359 L246.072,53.631 L234.991,53.631 L234.991,33.359 C234.991,29.362 235.749,23.48 230.015,23.48 C224.216,23.48 224.441,29.214 224.441,33.359 L224.441,53.631 L213.362,53.631 L213.362,16.909 L223.911,14.455" id="Fill-21" fill="#0055AA"></path>
                <path d="M294.463,51.221 C291.602,59.891 290.093,69.926 279.237,69.926 L273.786,69.953 L273.904,61.971 L279.387,61.992 C283.082,61.992 284.512,57.248 285.494,53.631 L271.551,15.34 L282.426,15.34 L289.739,38.105 L297.017,15.34 L306.145,15.34 L294.463,51.221" id="Fill-22" fill="#0055AA"></path>
                <path d="M311.158,20.163 L311.803,20.163 C312.531,20.163 313.149,19.897 313.149,19.211 C313.149,18.725 312.793,18.239 311.803,18.239 C311.512,18.239 311.314,18.258 311.158,18.282 L311.158,20.163 L311.158,20.163 Z M311.158,23.245 L310.272,23.245 L310.272,17.684 C310.737,17.618 311.182,17.551 311.843,17.551 C312.687,17.551 313.237,17.727 313.571,17.969 C313.905,18.215 314.081,18.592 314.081,19.121 C314.081,19.854 313.594,20.293 312.995,20.475 L312.995,20.52 C313.483,20.606 313.814,21.047 313.926,21.87 C314.061,22.731 314.191,23.061 314.277,23.245 L313.35,23.245 C313.217,23.061 313.086,22.557 312.976,21.827 C312.843,21.116 312.488,20.852 311.78,20.852 L311.158,20.852 L311.158,23.245 L311.158,23.245 Z M312.089,16.135 C309.896,16.135 308.102,18.014 308.102,20.338 C308.102,22.709 309.896,24.567 312.111,24.567 C314.326,24.59 316.097,22.709 316.097,20.362 C316.097,18.014 314.326,16.135 312.111,16.135 L312.089,16.135 L312.089,16.135 Z M312.111,15.36 C314.835,15.36 317.003,17.573 317.003,20.338 C317.003,23.151 314.835,25.342 312.089,25.342 C309.366,25.342 307.152,23.151 307.152,20.338 C307.152,17.573 309.366,15.36 312.089,15.36 L312.111,15.36 L312.111,15.36 Z" id="Fill-28" fill="#0055AA"></path>
            </g>
            <g id="mark" sketch:type="MSShapeGroup">
                <path d="M81.333,28.107 C92.45,43.777 88.184,59.209 70.56,62.736 C58.065,65.232 48.128,63.377 36.95,59.062 C46.482,62.432 55.12,63.076 63.654,61.783 C80.716,59.197 84.99,45.408 72.698,30.866 C61.621,17.762 39.065,10.353 22.302,13.006 C4.601,15.808 -0.357,29.909 9.838,43.146 C11.525,45.34 12.972,46.824 15.125,48.664 C12.236,46.334 9.704,43.764 7.761,41.029 C-3.483,25.197 2.936,8.917 25.093,5.205 C44.178,2.008 70.007,12.133 81.333,28.107" id="Fill-24" fill="#DB322A"></path>
                <path d="M36.055,44.133 L50.551,42.351 L49.874,21.898 L36.055,44.133 L36.055,44.133 Z M38.51,14.956 C38.51,14.956 52.145,16.186 63.694,23.003 L65.842,61.328 C65.842,61.328 56.323,63.174 51.163,62.189 L50.793,53.162 L29.543,55.127 L17.321,73.551 L0,75.887 L38.51,14.956 L38.51,14.956 Z" id="Fill-25" fill="#0055AA"></path>
                <path d="M45.167,6.061 C45.167,6.061 55.825,8.597 63.104,12.691 L62.454,0.798 L45.167,6.061" id="Fill-27" fill="#0055AA"></path>
            </g>
        </g>
    </g>
</svg>