<?xml version="1.0" encoding="UTF-8" standalone="no"?>
<svg width="32px" height="32px" viewBox="0 0 32 32" version="1.1" xmlns="http://www.w3.org/2000/svg" xmlns:xlink="http://www.w3.org/1999/xlink" xmlns:sketch="http://www.bohemiancoding.com/sketch/ns">
    <!-- Generator: Sketch 3.3.3 (12081) - http://www.bohemiancoding.com/sketch -->
    <title>Pinterest</title>
    <desc>Created with Sketch.</desc>
    <defs></defs>
    <g id="Page-1" stroke="none" stroke-width="1" fill="none" fill-rule="evenodd" sketch:type="MSPage">
        <g id="Social-Media" sketch:type="MSLayerGroup" transform="translate(-74.000000, 0.000000)">
            <g id="Pinterest" transform="translate(74.000000, 0.000000)" sketch:type="MSShapeGroup">
                <rect id="Rectangle-38-Copy-2" fill="#CD2027" x="0" y="0" width="32" height="32" rx="2"></rect>
                <path d="M16.3937778,5 C10.6542222,5 6,9.653 6,15.3937778 C6,19.6507778 8.55933333,23.3076667 12.2223333,24.9161111 C12.193,24.1913333 12.2174444,23.3186667 12.4032222,22.5278889 C12.6024444,21.6857778 13.7403333,16.8653333 13.7403333,16.8653333 C13.7403333,16.8653333 13.4078889,16.2004444 13.4078889,15.2202222 C13.4078889,13.679 14.3013333,12.5288889 15.4123333,12.5288889 C16.3583333,12.5288889 16.8154444,13.239 16.8154444,14.0896667 C16.8154444,15.0405556 16.2092222,16.462 15.8975556,17.7783333 C15.636,18.8807778 16.45,19.7791111 17.5377778,19.7791111 C19.5067778,19.7791111 20.8328889,17.2515556 20.8328889,14.2534444 C20.8328889,11.9764444 19.299,10.2702222 16.5086667,10.2702222 C13.3553333,10.2702222 11.3912222,12.6217778 11.3912222,15.2471111 C11.3912222,16.154 11.6576667,16.7932222 12.0756667,17.287 C12.2687778,17.5155556 12.2944444,17.606 12.226,17.8675556 C12.1758889,18.057 12.0622222,18.519 12.0145556,18.7011111 C11.9448889,18.9638889 11.7322222,19.0592222 11.4938889,18.9602222 C10.0418889,18.3674444 9.366,16.7773333 9.366,14.9892222 C9.366,12.0375556 11.8544444,8.49555556 16.7934444,8.49555556 C20.762,8.49555556 23.3726667,11.369 23.3726667,14.4502222 C23.3726667,18.5287778 21.1066667,21.5745556 17.7651111,21.5745556 C16.6431111,21.5745556 15.5871111,20.9683333 15.2265556,20.2802222 C15.2265556,20.2802222 14.6227778,22.6745556 14.4944444,23.1377778 C14.2756667,23.9383333 13.843,24.7388889 13.4482222,25.3634444 C14.3832222,25.6396667 15.3707778,25.79 16.3937778,25.79 C22.1345556,25.79 26.7875556,21.1357778 26.7875556,15.3937778 C26.7875556,9.653 22.1345556,5 16.3937778,5" id="Imported-Layers" fill="#FFFFFF"></path>
            </g>
        </g>
    </g>
</svg>