<?xml version="1.0" encoding="UTF-8" standalone="no"?>
<svg width="32px" height="32px" viewBox="0 0 32 32" version="1.1" xmlns="http://www.w3.org/2000/svg" xmlns:xlink="http://www.w3.org/1999/xlink" xmlns:sketch="http://www.bohemiancoding.com/sketch/ns">
    <!-- Generator: Sketch 3.3.3 (12081) - http://www.bohemiancoding.com/sketch -->
    <title>Twitter</title>
    <desc>Created with Sketch.</desc>
    <defs></defs>
    <g id="Page-1" stroke="none" stroke-width="1" fill="none" fill-rule="evenodd" sketch:type="MSPage">
        <g id="Social-Media" sketch:type="MSLayerGroup" transform="translate(-37.000000, 0.000000)">
            <g id="Twitter" transform="translate(37.000000, 0.000000)" sketch:type="MSShapeGroup">
                <rect id="Rectangle-38-Copy" fill="#01ABEC" x="0" y="0" width="32" height="32" rx="2"></rect>
                <path d="M27.716,9.22435714 C26.88,9.603 25.9813333,9.85678571 25.04,9.97214286 C26.0026667,9.38585714 26.7413333,8.45485714 27.088,7.34878571 C26.1866667,7.89164286 25.1906667,8.28521429 24.128,8.49692857 C23.28,7.57542857 22.0666667,7 20.7266667,7 C18.1546667,7 16.0666667,9.12528571 16.0666667,11.7445714 C16.0666667,12.1164286 16.1066667,12.4774286 16.1866667,12.8248571 C12.3146667,12.6253571 8.88133333,10.7402857 6.58133333,7.86585714 C6.18,8.57021429 5.95066667,9.38585714 5.95066667,10.2544286 C5.95066667,11.8979286 6.77333333,13.3514286 8.024,14.2023571 C7.26,14.1792857 6.54,13.9648571 5.912,13.6106429 L5.912,13.669 C5.912,15.968 7.51733333,17.8856429 9.65066667,18.3199286 C9.26,18.4325714 8.848,18.4882143 8.42266667,18.4882143 C8.12266667,18.4882143 7.82933333,18.4597143 7.54666667,18.4040714 C8.13866667,20.2877857 9.86,21.6598571 11.8986667,21.6978571 C10.304,22.9695 8.29466667,23.7281429 6.112,23.7281429 C5.73466667,23.7281429 5.364,23.7064286 5,23.663 C7.06266667,25.0079286 9.512,25.7937143 12.144,25.7937143 C20.7173333,25.7937143 25.4026667,18.5655714 25.4026667,12.2942143 C25.4026667,12.0892857 25.3986667,11.883 25.3906667,11.6807857 C26.3013333,11.0117143 27.0933333,10.1770714 27.716,9.22435714" id="Imported-Layers" fill="#FFFFFF"></path>
            </g>
        </g>
    </g>
</svg>