<?xml version="1.0" encoding="UTF-8" standalone="no"?>
<svg width="32px" height="32px" viewBox="0 0 32 32" version="1.1" xmlns="http://www.w3.org/2000/svg" xmlns:xlink="http://www.w3.org/1999/xlink" xmlns:sketch="http://www.bohemiancoding.com/sketch/ns">
    <!-- Generator: Sketch 3.3.3 (12081) - http://www.bohemiancoding.com/sketch -->
    <title>YouTube</title>
    <desc>Created with Sketch.</desc>
    <defs></defs>
    <g id="Page-1" stroke="none" stroke-width="1" fill="none" fill-rule="evenodd" sketch:type="MSPage">
        <g id="Social-Media" sketch:type="MSLayerGroup" transform="translate(-111.000000, 0.000000)">
            <g id="YouTube" transform="translate(111.000000, 0.000000)" sketch:type="MSShapeGroup">
                <rect id="Rectangle-38-Copy-3" fill="#BF0000" x="0" y="0" width="32" height="32" rx="2"></rect>
                <path d="M20.6444444,8.085875 L20.6444444,12.543625 C20.5375,12.6715 20.4069444,12.777375 20.2763889,12.86125 C20.1333333,12.945125 20.0263889,12.9905 19.9305556,12.9905 C19.8236111,12.9905 19.7402778,12.95475 19.6930556,12.895625 C19.6319444,12.8255 19.6083333,12.732 19.6083333,12.590375 L19.6083333,8.085875 L18.3944444,8.085875 L18.3944444,12.9905 C18.3944444,13.343875 18.4652778,13.60375 18.6083333,13.781125 C18.75,13.9585 18.9666667,14.039625 19.2388889,14.039625 C19.4777778,14.039625 19.7041667,13.9805 19.9541667,13.865 C20.1916667,13.734375 20.4194444,13.557 20.6444444,13.3095 L20.6444444,13.9585 L21.8597222,13.9585 L21.8597222,8.085875 L20.6444444,8.085875 L20.6444444,8.085875 Z M16.9416667,8.369125 C16.6194444,8.074875 16.2027778,7.93325 15.7041667,7.93325 C15.1555556,7.93325 14.7152778,8.074875 14.3819444,8.347125 C14.0597222,8.616625 13.8944444,8.97 13.8944444,9.430625 L13.8944444,12.4735 C13.8944444,12.9795 14.0597222,13.36725 14.3694444,13.66425 C14.6916667,13.9585 15.1208333,14.111125 15.6444444,14.111125 C16.1916667,14.111125 16.6333333,13.970875 16.9416667,13.67525 C17.2638889,13.392 17.4180556,13.0015 17.4180556,12.4955 L17.4180556,9.466375 C17.4180556,9.018125 17.2513889,8.652375 16.9416667,8.369125 L16.9416667,8.369125 Z M16.1791667,12.590375 C16.1791667,12.743 16.1319444,12.86125 16.0361111,12.95475 C15.9416667,13.051 15.8111111,13.096375 15.6444444,13.096375 C15.4888889,13.096375 15.3597222,13.051 15.275,12.95475 C15.1916667,12.873625 15.1430556,12.743 15.1430556,12.590375 L15.1430556,9.383875 C15.1430556,9.254625 15.1916667,9.14875 15.2861111,9.07725 C15.3708333,8.99475 15.5013889,8.959 15.6444444,8.959 C15.7986111,8.959 15.9305556,8.99475 16.0361111,9.07725 C16.1319444,9.14875 16.1791667,9.254625 16.1791667,9.383875 L16.1791667,12.590375 L16.1791667,12.590375 Z M12.4166667,6 L11.5736111,9.183125 L11.4763889,9.183125 L10.5958333,6 L9.21527778,6 L10.8472222,10.80975 L10.8472222,13.9585 L12.2152778,13.9585 L12.2152778,10.657125 L13.7986111,6 L12.4166667,6 L12.4166667,6 Z M21.8833333,20.018125 C21.9541667,20.111625 21.9902778,20.276625 21.9902778,20.488375 L21.9902778,21.030125 L21.0486111,21.030125 L21.0486111,20.488375 C21.0486111,20.276625 21.0722222,20.111625 21.1569444,20.018125 C21.2277778,19.92325 21.3472222,19.864125 21.5263889,19.864125 C21.6930556,19.864125 21.8111111,19.92325 21.8833333,20.018125 L21.8833333,20.018125 Z M18.1444444,19.99475 C18.0736111,19.8985 17.9541667,19.85175 17.8111111,19.85175 C17.7402778,19.85175 17.6555556,19.864125 17.5847222,19.8985 C17.5125,19.93425 17.4305556,19.99475 17.3583333,20.064875 L17.3583333,23.38825 C17.4416667,23.472125 17.5375,23.543625 17.6208333,23.578 C17.7041667,23.612375 17.7875,23.637125 17.8708333,23.637125 C18.0138889,23.637125 18.1083333,23.601375 18.1680556,23.518875 C18.2263889,23.44875 18.2638889,23.329125 18.2638889,23.153125 L18.2638889,20.394875 C18.2638889,20.2175 18.2263889,20.08825 18.1444444,19.99475 L18.1444444,19.99475 Z M18.1444444,19.99475 C18.0736111,19.8985 17.9541667,19.85175 17.8111111,19.85175 C17.7402778,19.85175 17.6555556,19.864125 17.5847222,19.8985 C17.5125,19.93425 17.4305556,19.99475 17.3583333,20.064875 L17.3583333,23.38825 C17.4416667,23.472125 17.5375,23.543625 17.6208333,23.578 C17.7041667,23.612375 17.7875,23.637125 17.8708333,23.637125 C18.0138889,23.637125 18.1083333,23.601375 18.1680556,23.518875 C18.2263889,23.44875 18.2638889,23.329125 18.2638889,23.153125 L18.2638889,20.394875 C18.2638889,20.2175 18.2263889,20.08825 18.1444444,19.99475 L18.1444444,19.99475 Z M24.2527778,15.879375 L7.37083333,15.879375 C5.52361111,15.879375 4,17.389125 4,19.2275 L4,22.63475 C4,24.473125 5.52361111,25.971875 7.37083333,25.971875 L24.2527778,25.971875 C26.0972222,25.971875 27.6222222,24.473125 27.6222222,22.63475 L27.6222222,19.2275 C27.6222222,17.389125 26.0972222,15.879375 24.2527778,15.879375 L24.2527778,15.879375 Z M11.9180556,18.225125 L10.6555556,18.225125 L10.6555556,24.403 L9.44027778,24.403 L9.44027778,18.225125 L8.19027778,18.225125 L8.19027778,17.177375 L11.9180556,17.177375 L11.9180556,18.225125 L11.9180556,18.225125 Z M15.4652778,24.403 L14.3819444,24.403 L14.3819444,23.8145 C14.1916667,24.03725 13.9763889,24.20225 13.7638889,24.308125 C13.5486111,24.426375 13.3458333,24.4855 13.1430556,24.4855 C12.8944444,24.4855 12.7027778,24.403 12.5722222,24.236625 C12.4527778,24.084 12.3930556,23.848875 12.3930556,23.53125 L12.3930556,19.0625 L13.4652778,19.0625 L13.4652778,23.1655 C13.4652778,23.282375 13.4888889,23.37725 13.5375,23.435 C13.5736111,23.4955 13.6555556,23.518875 13.7513889,23.518875 C13.8333333,23.518875 13.9305556,23.4845 14.05,23.400625 C14.1791667,23.329125 14.2875,23.235625 14.3819444,23.117375 L14.3819444,19.0625 L15.4652778,19.0625 L15.4652778,24.403 L15.4652778,24.403 Z M19.3708333,23.29475 C19.3708333,23.6715 19.2875,23.96575 19.1208333,24.167875 C18.9555556,24.36725 18.7041667,24.473125 18.3833333,24.473125 C18.1680556,24.473125 17.9888889,24.437375 17.8222222,24.35625 C17.6555556,24.272375 17.5027778,24.1555 17.3583333,23.9905 L17.3583333,24.403 L16.275,24.403 L16.275,17.177375 L17.3583333,17.177375 L17.3583333,19.498375 C17.5027778,19.34575 17.6555556,19.2165 17.8222222,19.134 C17.9888889,19.050125 18.1555556,19.00475 18.3222222,19.00475 C18.6569444,19.00475 18.9180556,19.121625 19.0958333,19.34575 C19.2763889,19.569875 19.3708333,19.8985 19.3708333,20.337125 L19.3708333,23.29475 L19.3708333,23.29475 Z M23.1097222,21.868875 L21.0486111,21.868875 L21.0486111,22.869875 C21.0486111,23.153125 21.0722222,23.342875 21.1458333,23.44875 C21.2152778,23.565625 21.3472222,23.612375 21.5138889,23.612375 C21.6930556,23.612375 21.8111111,23.565625 21.8833333,23.472125 C21.9541667,23.38825 21.9902778,23.1765 21.9902778,22.869875 L21.9902778,22.62375 L23.1097222,22.62375 L23.1097222,22.89325 C23.1097222,23.44875 22.9666667,23.859875 22.6916667,24.13075 C22.4305556,24.414 22.025,24.544625 21.4902778,24.544625 C21.0013889,24.544625 20.6208333,24.403 20.3458333,24.10875 C20.0736111,23.8145 19.9305556,23.413 19.9305556,22.89325 L19.9305556,20.50075 C19.9305556,20.0415 20.0847222,19.663375 20.3958333,19.369125 C20.6916667,19.0845 21.0847222,18.93325 21.5736111,18.93325 C22.0625,18.93325 22.4430556,19.0735 22.7041667,19.34575 C22.9666667,19.616625 23.1097222,19.99475 23.1097222,20.50075 L23.1097222,21.868875 L23.1097222,21.868875 Z M17.8111111,19.85175 C17.7402778,19.85175 17.6555556,19.864125 17.5847222,19.8985 C17.5125,19.93425 17.4305556,19.99475 17.3583333,20.064875 L17.3583333,23.38825 C17.4416667,23.472125 17.5375,23.543625 17.6208333,23.578 C17.7041667,23.612375 17.7875,23.637125 17.8708333,23.637125 C18.0138889,23.637125 18.1083333,23.601375 18.1680556,23.518875 C18.2263889,23.44875 18.2638889,23.329125 18.2638889,23.153125 L18.2638889,20.394875 C18.2638889,20.2175 18.2263889,20.08825 18.1444444,19.99475 C18.0736111,19.8985 17.9541667,19.85175 17.8111111,19.85175 L17.8111111,19.85175 Z M18.1444444,19.99475 C18.0736111,19.8985 17.9541667,19.85175 17.8111111,19.85175 C17.7402778,19.85175 17.6555556,19.864125 17.5847222,19.8985 C17.5125,19.93425 17.4305556,19.99475 17.3583333,20.064875 L17.3583333,23.38825 C17.4416667,23.472125 17.5375,23.543625 17.6208333,23.578 C17.7041667,23.612375 17.7875,23.637125 17.8708333,23.637125 C18.0138889,23.637125 18.1083333,23.601375 18.1680556,23.518875 C18.2263889,23.44875 18.2638889,23.329125 18.2638889,23.153125 L18.2638889,20.394875 C18.2638889,20.2175 18.2263889,20.08825 18.1444444,19.99475 L18.1444444,19.99475 Z M18.1444444,19.99475 C18.0736111,19.8985 17.9541667,19.85175 17.8111111,19.85175 C17.7402778,19.85175 17.6555556,19.864125 17.5847222,19.8985 C17.5125,19.93425 17.4305556,19.99475 17.3583333,20.064875 L17.3583333,23.38825 C17.4416667,23.472125 17.5375,23.543625 17.6208333,23.578 C17.7041667,23.612375 17.7875,23.637125 17.8708333,23.637125 C18.0138889,23.637125 18.1083333,23.601375 18.1680556,23.518875 C18.2263889,23.44875 18.2638889,23.329125 18.2638889,23.153125 L18.2638889,20.394875 C18.2638889,20.2175 18.2263889,20.08825 18.1444444,19.99475 L18.1444444,19.99475 Z" id="Imported-Layers" fill="#FFFFFF"></path>
            </g>
        </g>
    </g>
</svg>